<?xml version="1.0" standalone="no"?>
<!DOCTYPE svg PUBLIC "-//W3C//DTD SVG 1.1//EN" "http://www.w3.org/Graphics/SVG/1.1/DTD/svg11.dtd" >
<svg xmlns="http://www.w3.org/2000/svg" xmlns:xlink="http://www.w3.org/1999/xlink" version="1.1">
<metadata></metadata>
<defs>
<font id="bauerregular" horiz-adv-x="897" >
<font-face units-per-em="2048" ascent="1638" descent="-410" />
<missing-glyph horiz-adv-x="1024" />
<glyph horiz-adv-x="0" />
<glyph unicode="&#xd;" horiz-adv-x="1024" />
<glyph unicode=" "  horiz-adv-x="1024" />
<glyph unicode="&#x09;" horiz-adv-x="1024" />
<glyph unicode="&#xa0;" horiz-adv-x="1024" />
<glyph unicode="!" d="M-63 -2l135 383h446l-135 -383h-446zM113 498l401 1134h447l-402 -1134h-446z" />
<glyph unicode="&#x22;" horiz-adv-x="673" d="M-55 1268l127 364h303l-129 -364h-301zM293 1268l127 364h303l-129 -364h-301z" />
<glyph unicode="#" horiz-adv-x="1546" d="M2 330l115 315h129l123 348h-125l114 316h121l43 118h334l-41 -118h371l43 118h334l-41 -118h135l-113 -316h-133l-125 -348h129l-112 -315h-127l-46 -127h-335l45 127h-371l-45 -127h-336l45 127h-131zM580 645h372l123 348h-370z" />
<glyph unicode="$" horiz-adv-x="1806" d="M-86 -2l137 385h498l86 244h-258q-125 0 -203 59t-78 170q0 57 23 123q156 453 160 469q45 182 233 182h479l58 166h446l-59 -166h456l-137 -385h-455l-81 -231h231q125 0 204 -58.5t79 -167.5q0 -57 -25 -124q-61 -166 -180 -484q-33 -92 -78 -131q-57 -51 -156 -51 h-436l-63 -182h-447l64 182h-498zM614 1075q0 -61 93 -61h65l82 231h-63q-78 0 -117 -31q-23 -16 -51 -61q-2 -6 -3 -31l-2 -24q-4 -10 -4 -23zM995 383h21q131 0 168 90q31 78 39 74q2 8 2 16q0 63 -105 64h-39z" />
<glyph unicode="%" d="M-63 -2l577 1634h447l-578 -1634h-446zM-2 1268l127 364h303l-127 -364h-303zM473 -2l127 364h303l-127 -364h-303z" />
<glyph unicode="'" horiz-adv-x="382" d="M-20 1268l126 364h304l-129 -364h-301z" />
<glyph unicode="(" horiz-adv-x="1521" d="M-66 -186q0 57 25 125q242 700 672 1937q63 182 233 182h766l-137 -385h-350q-135 0 -168 -92q-66 -180 -291 -838q-242 -694 -242 -704q0 -66 105 -66h354l-135 -385h-549q-125 0 -201 58q-82 59 -82 168z" />
<glyph unicode=")" horiz-adv-x="1294" d="M-309 -412l137 385h350q135 0 168 93q63 180 291 837q242 694 242 705q0 66 -105 65h-354l135 385h549q125 0 201 -55q82 -61 81 -170q0 -57 -24 -125q-242 -700 -672 -1937q-63 -182 -233 -183h-766z" />
<glyph unicode="*" horiz-adv-x="550" d="M-41 1479l133 102l103 -63v84h159v-46l54 41l143 -90l-154 -116l195 -121l-133 -103l-105 66v-68h-159v70l-84 -66l-142 88l154 119z" />
<glyph unicode="+" horiz-adv-x="1269" d="M-10 702l112 314h387l136 360h333l-133 -360h455l-115 -314h-456l-138 -366h-333l135 366h-383z" />
<glyph unicode="," horiz-adv-x="1015" d="M139 -104l168 485h475l-401 -485h-242z" />
<glyph unicode="-" horiz-adv-x="1308" d="M59 702l115 316h1176l-113 -316h-1178z" />
<glyph unicode="." horiz-adv-x="958" d="M199 -2l135 383h446l-135 -383h-446z" />
<glyph unicode="/" d="M-100 -98l661 1861h447l-662 -1861h-446z" />
<glyph unicode="0" horiz-adv-x="1927" d="M-66 209q0 94 48 219l34 86l336 963q27 80 103 120q61 33 131 33h1186q244 0 243 -211q0 -88 -45 -221l-371 -1048q-29 -80 -104 -121q-59 -31 -129 -31h-1186q-246 0 -246 211zM16 514zM451 467q0 -84 73 -84h594q74 0 113 37q25 25 47 84l215 614q8 20 8 41 q0 86 -74 86h-593q-119 0 -162 -123l-213 -612q-8 -20 -8 -43zM459 510zM1720 498z" />
<glyph unicode="1" d="M-63 -2l577 1634h447l-578 -1634h-446z" />
<glyph unicode="2" horiz-adv-x="1835" d="M-98 231q0 66 18 121l178 506q63 184 258 184h1055l31 97q6 18 6 35q0 72 -92 71h-1127l138 385h1384q215 0 215 -217q0 -57 -18 -108l-232 -650h-1147q-96 0 -127 -86l-24 -69q-10 -27 -10 -49q0 -68 69 -68h1149l-139 -385h-1374q-113 0 -166 74q-45 63 -45 159z" />
<glyph unicode="3" horiz-adv-x="1644" d="M-59 -2l141 385h737q135 0 168 90l25 72q6 14 6 28q0 82 -92 82h-754l133 381h766q72 0 98.5 15.5t40.5 54.5l21 57q2 8 2 17q0 66 -105 65h-747l137 385h940q125 0 204 -58.5t79 -166.5q0 -57 -25 -125l-96 -268q-57 -160 -197 -189q31 -8 53.5 -47t22.5 -88 q0 -29 -10 -57l-158 -451q-63 -182 -233 -182h-1157z" />
<glyph unicode="4" horiz-adv-x="1746" d="M-92 811q0 63 45 195l217 624h446l-188 -530q-14 -39 -14 -66q0 -63 82 -63h591q98 0 127 86q55 178 203 573h447l-494 -1632h-532l206 588h-776q-360 0 -360 225z" />
<glyph unicode="5" horiz-adv-x="1789" d="M-106 -2l137 385h964q131 0 168 90q31 78 39 74q2 8 2 16q0 63 -104 64h-744q-123 0 -198 57q-82 61 -82 172q0 57 22 123q76 217 215 651h1559l-135 -385h-1092q-45 -150 -47 -147q-4 -10 -4 -23q0 -61 92 -61h744q125 0 203.5 -58.5t78.5 -167.5q0 -57 -24 -124 q-61 -166 -181 -484q-33 -92 -77 -131q-55 -51 -156 -51h-1380z" />
<glyph unicode="6" horiz-adv-x="1806" d="M-129 223q0 53 25 123q152 446 385 1102q35 94 81 135q55 47 152 47h1421l-137 -385h-1005q-131 0 -168 -92q-6 -16 -45 -139h806q125 0 204 -58.5t79 -167.5q0 -57 -24 -124q-61 -166 -181 -484q-33 -92 -78 -131q-57 -51 -155 -51h-1079q-117 0 -193 51q-88 59 -88 174 zM381 446q0 -66 102 -65h469q129 0 168 92q31 78 37 74q4 8 4 16q0 63 -104 64h-621q-55 -164 -55 -181z" />
<glyph unicode="7" horiz-adv-x="1218" d="M-86 -2l707 1245h-674l139 389h1219l-908 -1634h-483zM-86 -2z" />
<glyph unicode="8" horiz-adv-x="1701" d="M-68 223q0 57 25 123l96 270q57 158 197 187q-31 8 -53.5 47t-22.5 88q0 31 10 57l158 453q31 90 78 131q55 51 155 51h941q123 0 202.5 -58.5t79.5 -166.5q1 -57 -24 -125l-97 -268q-57 -160 -198 -189q33 -8 54 -47t21 -88q0 -29 -10 -57l-155 -451q-63 -182 -234 -182 h-940q-125 0 -201 55q-82 61 -82 170zM442 389q0 -63 105 -63h332q133 0 165 90l27 71q4 14 4 29q0 82 -90 82l-354 2q-74 0 -100.5 -15.5t-41.5 -52.5l-45 -126q-2 -8 -2 -17zM647 1094q0 -82 92 -82h355q72 0 98.5 14t40.5 53l45 125q2 8 2 17q0 66 -102 65h-332 q-135 0 -168 -92l-25 -72q-6 -12 -6 -28z" />
<glyph unicode="9" horiz-adv-x="1896" d="M-74 -2l137 385h1006q131 0 168 90q6 18 45 141h-807q-123 0 -201.5 58.5t-78.5 167.5q0 57 22 123q61 166 180 485q33 90 78 131q57 51 156 51h1079q119 0 193 -53q88 -59 88 -172q0 -55 -25 -125q-152 -446 -385 -1100q-33 -96 -82 -137q-55 -45 -151 -45h-1422z M702 1063q0 -63 103 -64h620q58 165 58 181q0 66 -105 65h-469q-129 0 -166 -92q-33 -78 -38 -74q-2 -8 -3 -16z" />
<glyph unicode=":" horiz-adv-x="716" d="M-18 -2l135 383h446l-135 -383h-446zM186 899l136 383h446l-135 -383h-447z" />
<glyph unicode=";" horiz-adv-x="761" d="M-41 -104l166 485h477l-403 -485h-240zM236 899l135 383h446l-135 -383h-446z" />
<glyph unicode="&#x3c;" horiz-adv-x="843" d="M12 629l70 235l749 205l-69 -235l-377 -80l334 -74l-70 -236z" />
<glyph unicode="=" horiz-adv-x="1300" d="M-123 444l70 236h1364l-70 -236h-1364zM-10 834l69 235h1364l-69 -235h-1364z" />
<glyph unicode="&#x3e;" horiz-adv-x="843" d="M12 444l70 236l377 82l-334 72l70 235l636 -184l-69 -236z" />
<glyph unicode="?" horiz-adv-x="1888" d="M-137 -2l135 383h446l-135 -383h-446zM39 506l117 352q59 184 258 184h1054l31 97q6 18 6 35q0 72 -92 71h-1126l137 385h1384q215 0 215 -217q0 -57 -18 -108l-231 -650h-1147q-106 0 -127 -86l-15 -63h-446z" />
<glyph unicode="@" horiz-adv-x="1859" d="M-68 287q0 55 23 121l324 978q61 182 233 183h1143q125 0 202.5 -59.5t77.5 -170.5q1 -54 -22 -120l-221 -691q-55 -174 -234 -174h-958q-119 0 -119 133q0 35 12 66l99 287q37 102 145 102h594l16 53q4 10 4 21q0 41 -51 41h-635l78 215h778q121 0 121 -121 q0 -33 -8 -61l-191 -535q115 6 144 90l207 625q2 8 2 18q0 61 -105 62h-940q-137 0 -166 -82q-27 -88 -309 -912q-2 -8 -2 -16q0 -63 102 -64h992l-76 -217h-979q-125 0 -199 56q-82 61 -82 172zM666 608q0 -37 41 -37h393l53 154h-395q-55 0 -72 -49l-14 -39q-6 -16 -6 -29 z" />
<glyph unicode="A" horiz-adv-x="1867" d="M-66 231q0 66 21 121l176 506q63 184 260 184h1053l31 97q6 18 6 35q0 71 -89 71h-3h-1125l135 385h1385q217 0 217 -217q-1 -57 -19 -108l-460 -1307h-1375q-113 0 -167 74q-45 63 -46 159zM442 451q0 -68 70 -68h700l97 272h-705q-96 0 -127 -86l-26 -69q-8 -27 -9 -49 z" />
<glyph unicode="B" horiz-adv-x="1988" d="M-66 -2l580 1632h1286q125 0 204 -58.5t79 -166.5q0 -57 -23 -125l-96 -268q-57 -160 -199 -189q33 -8 54.5 -47t21.5 -88q0 -29 -10 -57l-156 -451q-63 -182 -233 -182h-1508zM518 383h645q133 0 166 90l27 72q4 14 4 28q0 82 -90 82h-656zM750 1036h663q72 0 103 17 q25 14 36 53l21 57q2 8 2 17q0 65 -99 65h-3h-650z" />
<glyph unicode="C" horiz-adv-x="1771" d="M-125 223q0 57 23 123l385 1102q63 182 233 182h1380l-135 -385h-966q-135 0 -166 -92v1q-2 0 -244 -691q-2 -8 -2 -17q0 -63 102 -63h971l-137 -385h-1163q-123 0 -202 58.5t-79 166.5z" />
<glyph unicode="D" horiz-adv-x="1984" d="M-70 -2l578 1632h1288q125 0 204 -58.5t79 -166.5q0 -57 -23 -125l-387 -1100q-63 -182 -231 -182h-1508zM514 383h643q135 0 168 90l12 35q11 26 232 655q2 8 2 17q0 65 -102 65h-3h-647z" />
<glyph unicode="E" horiz-adv-x="1865" d="M-100 223q0 63 45 195l374 1085q45 127 220 127h1202q258 0 258 -213q0 -79 -41 -198l-213 -603h-1290l-35 -104q-14 -39 -14 -66q0 -63 81 -63h1176l-135 -385h-1268q-360 0 -360 225zM594 1001h842l45 138q4 12 4 26q0 80 -101 80h-573q-74 0 -104 -10q-43 -16 -58 -61 z" />
<glyph unicode="F" horiz-adv-x="1613" d="M-115 -2l578 1634h1266l-134 -387h-823l-74 -207h822l1 1q6 0 -135 -382h-821l-233 -659h-447zM1384 657zM1386 657z" />
<glyph unicode="G" horiz-adv-x="1806" d="M-129 223q0 53 25 123q152 449 385 1102q35 94 81 135q55 47 152 47h1421l-137 -385h-1005q-129 0 -166 -89t-135 -368q-111 -313 -111 -342q0 -65 99 -65h3h467q131 0 166 92q8 10 41 94h-508l137 385h953l-275 -772q-35 -96 -84 -137q-55 -45 -151 -45h-1077 q-117 0 -193 51q-88 59 -88 174zM649 567zM788 952z" />
<glyph unicode="H" horiz-adv-x="2011" d="M-139 -2l579 1634h449l-207 -596h817l211 596h444l-581 -1634h-447l236 659h-821l-234 -659h-446z" />
<glyph unicode="I" d="M-63 -2l577 1634h447l-578 -1634h-446z" />
<glyph unicode="J" horiz-adv-x="1871" d="M-131 -2l135 385h957q70 0 126 33q51 31 68 73l406 1141h444l-492 -1394q-84 -238 -364 -238h-1280z" />
<glyph unicode="K" horiz-adv-x="1941" d="M-135 -4l590 1630h452l-221 -590h664q72 0 102 17q25 14 37 53l20 57l129 463h441l-178 -614q-47 -158 -199 -189q33 -8 54.5 -47t21.5 -88q0 -29 -11 -57l-217 -635h-458l200 549q4 14 4 28q0 82 -92 82h-653l-225 -659h-461z" />
<glyph unicode="L" horiz-adv-x="1716" d="M31 -2l557 1632h442l-428 -1247h1098l-135 -385h-1534z" />
<glyph unicode="M" horiz-adv-x="3180" d="M-109 -4l570 1632h2629q244 0 244 -209q0 -88 -47 -221l-426 -1202h-440l389 1120q8 20 8 43q0 84 -74 84h-592q-119 0 -163 -127l-390 -1120h-440l389 1120q8 20 8 43q0 84 -73 84h-592q-119 0 -164 -127l-389 -1120h-447z" />
<glyph unicode="N" horiz-adv-x="1941" d="M-100 -2l569 1632h1366q246 0 246 -211q0 -88 -47 -221l-426 -1200h-441l389 1120q8 20 9 41q0 86 -74 86h-592q-121 0 -164 -123l-389 -1124h-446z" />
<glyph unicode="O" horiz-adv-x="1927" d="M-66 209q0 94 48 219l34 86l336 963q27 80 103 120q61 33 131 33h1186q243 0 243 -209q0 -90 -45 -223l-371 -1048q-29 -80 -104 -121q-59 -31 -129 -31h-1186q-246 0 -246 211zM16 514zM451 467q0 -84 73 -84h594q74 0 113 37q25 25 47 84l215 614q8 20 8 41 q0 86 -74 86h-593q-119 0 -162 -123l-213 -612q-8 -20 -8 -43zM459 510zM1720 498z" />
<glyph unicode="P" horiz-adv-x="1882" d="M-131 0l577 1632h1289q123 0 202.5 -58t79.5 -171q0 -55 -24 -121l-156 -436q-57 -160 -199 -189h-1089l-236 -659zM682 1038h664q72 0 102 17q25 14 37 53l20 57q2 8 2 17q0 65 -99 65h-3h-649z" />
<glyph unicode="Q" horiz-adv-x="1888" d="M-55 428l32 86l336 963q29 80 105 120q59 33 129 33h1188q243 0 243 -209v-2q0 -88 -47 -221l-370 -1048q-33 -92 -127 -132l20 -59l-407 -131l-56 166l-850 4q-245 0 -245 209q0 96 49 221zM-23 514zM414 467q0 -84 73 -84h373l-31 94l406 141l20 -65l199 565q8 20 8 41 q0 86 -73 86h-592q-121 0 -164 -123l-213 -612q-6 -23 -6 -43zM420 510zM1683 498z" />
<glyph unicode="R" horiz-adv-x="2015" d="M-143 -2l491 1395q84 237 365 237h2h1444l-138 -385h-1120q-70 0 -124 -31.5t-68 -74.5l-406 -1141h-446z" />
<glyph unicode="S" horiz-adv-x="1789" d="M-106 -2l137 385h964q131 0 168 90q29 74 38 74h1q2 8 2 16q0 63 -104 64h-744q-123 0 -198 57q-82 61 -82 172q0 57 22 123q156 453 160 469q45 182 234 182h1380l-135 -385h-967q-76 0 -117 -31q-23 -16 -49 -61q-4 -6 -4 -30.5t-2 -24.5q-4 -10 -4 -23q0 -61 92 -61 h744q125 0 203.5 -58.5t78.5 -167.5q0 -57 -24 -124q-61 -166 -181 -484q-33 -92 -77 -131q-55 -51 -156 -51h-1380z" />
<glyph unicode="T" horiz-adv-x="1669" d="M-119 1243l139 389h1768l-137 -389h-652l-440 -1245h-446l440 1245h-672z" />
<glyph unicode="U" horiz-adv-x="1908" d="M-135 207q0 90 47 221l426 1202h440l-391 -1120q-6 -20 -6 -43q0 -84 72 -84h594q121 0 161 121l391 1126h447l-518 -1480q-27 -80 -103 -121q-61 -31 -131 -31h-1185q-244 0 -244 209z" />
<glyph unicode="V" horiz-adv-x="1845" d="M-131 -2l561 1632h432l-438 -1247l960 1247h592l-1335 -1632h-772z" />
<glyph unicode="W" horiz-adv-x="2680" d="M-190 -2l561 1632h432l-438 -1247l960 1247h592l-283 -346l-315 -901l960 1247h592l-1265 -1632h-842l133 387l-315 -387h-772zM371 1630z" />
<glyph unicode="X" horiz-adv-x="1865" d="M-27 -2l715 899l-305 733h530l127 -289l230 289h633l-643 -784l376 -848h-571l-168 403l-332 -403h-592z" />
<glyph unicode="Y" horiz-adv-x="1871" d="M-131 -2l135 385h957q70 0 126 33q51 31 68 73l33 97h-776q-360 0 -361 225q0 63 45 195l217 624h447l-189 -530q-14 -39 -14 -66q0 -63 82 -63h592q98 0 127 86q8 29 203 573h444l-492 -1394q-84 -238 -364 -238h-1280z" />
<glyph unicode="Z" horiz-adv-x="1542" d="M80 -2l706 1245h-673l141 389h1219l-707 -1245h672l-140 -389h-1218zM80 -2z" />
<glyph unicode="[" horiz-adv-x="1011" d="M-342 -186q0 57 25 125q242 700 671 1937q63 182 234 182h766l-137 -385h-351q-135 0 -168 -92q-66 -180 -290 -838q-242 -694 -242 -704q0 -66 104 -66h355l-136 -385h-548q-125 0 -201 58q-82 59 -82 168z" />
<glyph unicode="\" d="M-100 1763l661 -1861h447l-662 1861h-446z" />
<glyph unicode="]" horiz-adv-x="1294" d="M-309 -412l137 385h350q135 0 168 93q63 180 291 837q242 694 242 705q0 66 -105 65h-354l135 385h549q125 0 201 -55q82 -61 81 -170q0 -57 -24 -125q-242 -700 -672 -1937q-63 -182 -233 -183h-766z" />
<glyph unicode="^" horiz-adv-x="667" d="M-10 1317l207 665h245l199 -665h-246l-80 344l-79 -344h-246z" />
<glyph unicode="_" horiz-adv-x="1308" d="M31 -2l114 313h1176l-115 -313h-1175z" />
<glyph unicode="`" horiz-adv-x="430" d="M0 1268l127 364h303l-127 -364h-303z" />
<glyph unicode="a" horiz-adv-x="1867" d="M-66 231q0 66 21 121l176 506q63 184 260 184h1053l31 97q6 18 6 35q0 71 -89 71h-3h-1125l135 385h1385q217 0 217 -217q-1 -57 -19 -108l-460 -1307h-1375q-113 0 -167 74q-45 63 -46 159zM442 451q0 -68 70 -68h700l97 272h-705q-96 0 -127 -86l-26 -69q-8 -27 -9 -49 z" />
<glyph unicode="b" horiz-adv-x="1988" d="M-66 -2l580 1632h1286q125 0 204 -58.5t79 -166.5q0 -57 -23 -125l-96 -268q-57 -160 -199 -189q33 -8 54.5 -47t21.5 -88q0 -29 -10 -57l-156 -451q-63 -182 -233 -182h-1508zM518 383h645q133 0 166 90l27 72q4 14 4 28q0 82 -90 82h-656zM750 1036h663q72 0 103 17 q25 14 36 53l21 57q2 8 2 17q0 65 -99 65h-3h-650z" />
<glyph unicode="c" horiz-adv-x="1771" d="M-125 223q0 57 23 123l385 1102q63 182 233 182h1380l-135 -385h-966q-135 0 -166 -92v1q-2 0 -244 -691q-2 -8 -2 -17q0 -63 102 -63h971l-137 -385h-1163q-123 0 -202 58.5t-79 166.5z" />
<glyph unicode="d" horiz-adv-x="1984" d="M-70 -2l578 1632h1288q125 0 204 -58.5t79 -166.5q0 -57 -23 -125l-387 -1100q-63 -182 -231 -182h-1508zM514 383h643q135 0 168 90l12 35q11 26 232 655q2 8 2 17q0 65 -102 65h-3h-647z" />
<glyph unicode="e" horiz-adv-x="1865" d="M-100 223q0 63 45 195l374 1085q45 127 220 127h1202q258 0 258 -213q0 -79 -41 -198l-213 -603h-1290l-35 -104q-14 -39 -14 -66q0 -63 81 -63h1176l-135 -385h-1268q-360 0 -360 225zM594 1001h842l45 138q4 12 4 26q0 80 -101 80h-573q-74 0 -104 -10q-43 -16 -58 -61 z" />
<glyph unicode="f" horiz-adv-x="1613" d="M-115 -2l578 1634h1266l-134 -387h-823l-74 -207h822l1 1q6 0 -135 -382h-821l-233 -659h-447zM1384 657zM1386 657z" />
<glyph unicode="g" horiz-adv-x="1806" d="M-129 223q0 53 25 123q152 449 385 1102q35 94 81 135q55 47 152 47h1421l-137 -385h-1005q-129 0 -166 -89t-135 -368q-111 -313 -111 -342q0 -65 99 -65h3h467q131 0 166 92q8 10 41 94h-508l137 385h953l-275 -772q-35 -96 -84 -137q-55 -45 -151 -45h-1077 q-117 0 -193 51q-88 59 -88 174zM649 567zM788 952z" />
<glyph unicode="h" horiz-adv-x="2011" d="M-139 -2l579 1634h449l-207 -596h817l211 596h444l-581 -1634h-447l236 659h-821l-234 -659h-446z" />
<glyph unicode="i" d="M-63 -2l577 1634h447l-578 -1634h-446z" />
<glyph unicode="j" horiz-adv-x="1871" d="M-131 -2l135 385h957q70 0 126 33q51 31 68 73l406 1141h444l-492 -1394q-84 -238 -364 -238h-1280z" />
<glyph unicode="k" horiz-adv-x="1941" d="M-133 -4l588 1630h454l-223 -590h666q72 0 98.5 15.5t40.5 54.5l20 57l129 463h441l-180 -614q-45 -158 -197 -189q31 -8 52.5 -47t21.5 -88q0 -29 -9 -57l-219 -635h-456l198 549q6 14 6 28q0 82 -92 82h-653l-225 -659h-461z" />
<glyph unicode="l" horiz-adv-x="1712" d="M27 -2l557 1632h442l-428 -1247h1098l-135 -385h-1534z" />
<glyph unicode="m" horiz-adv-x="3227" d="M-59 -4l569 1632h2630q243 0 243 -207q0 -90 -47 -223l-426 -1202h-440l391 1120q6 20 6 43q0 84 -74 84h-591q-119 0 -164 -127l-389 -1120h-441l391 1120q6 20 7 43q0 84 -74 84h-592q-119 0 -164 -127l-389 -1120h-446z" />
<glyph unicode="n" horiz-adv-x="1980" d="M-59 -2l571 1632h1366q244 0 244 -211q0 -88 -45 -221l-426 -1200h-443l391 1120q6 20 7 41q0 86 -72 86h-594q-121 0 -162 -123l-391 -1124h-446z" />
<glyph unicode="o" horiz-adv-x="1927" d="M-66 209q0 94 48 219l34 86l336 963q27 80 103 120q61 33 131 33h1186q243 0 243 -209q0 -90 -45 -223l-371 -1048q-29 -80 -104 -121q-59 -31 -129 -31h-1186q-246 0 -246 211zM16 514zM451 467q0 -84 73 -84h594q74 0 113 37q25 25 47 84l215 614q8 20 8 41 q0 86 -74 86h-593q-119 0 -162 -123l-213 -612q-8 -20 -8 -43zM459 510zM1720 498z" />
<glyph unicode="p" horiz-adv-x="1882" d="M-131 0l577 1632h1289q123 0 202.5 -58t79.5 -171q0 -56 -24 -121l-156 -436q-57 -160 -199 -189h-1089l-236 -659zM682 1038h664q72 0 102 17q25 14 37 53l20 57q2 8 2 17q0 65 -99 65h-3h-649z" />
<glyph unicode="q" horiz-adv-x="1888" d="M-55 428l32 86l336 963q29 80 105 120q59 33 129 33h1188q243 0 243 -209v-2q0 -88 -47 -221l-370 -1048q-33 -92 -127 -132l20 -59l-407 -131l-56 166l-850 4q-245 0 -245 209q0 96 49 221zM-23 514zM414 467q0 -84 73 -84h373l-31 94l406 141l20 -65l199 565q8 20 8 41 q0 86 -73 86h-592q-121 0 -164 -123l-213 -612q-6 -23 -6 -43zM420 510zM1683 498z" />
<glyph unicode="r" horiz-adv-x="2015" d="M-143 -2l491 1395q84 237 365 237h2h1444l-138 -385h-1120q-70 0 -124 -31.5t-68 -74.5l-406 -1141h-446z" />
<glyph unicode="s" horiz-adv-x="1806" d="M-90 -2l137 385h965q131 0 168 90q29 74 38 74h1q2 8 2 16q0 63 -105 64h-743q-123 0 -202 59t-79 170q0 57 23 123q156 453 159 469q45 182 234 182h1380l-135 -385h-967q-76 0 -116 -31q-23 -16 -49 -61q-4 -6 -4.5 -30.5t-2.5 -24.5q-4 -10 -4 -23q0 -61 92 -61h744 q125 0 204 -58.5t79 -167.5q0 -57 -25 -124q-61 -166 -180 -484q-33 -92 -78 -131q-55 -51 -156 -51h-1380z" />
<glyph unicode="t" horiz-adv-x="1669" d="M-119 1243l139 389h1768l-137 -389h-652l-440 -1245h-446l440 1245h-672z" />
<glyph unicode="u" horiz-adv-x="1908" d="M-135 207q0 90 47 221l426 1202h440l-391 -1120q-6 -20 -6 -43q0 -84 72 -84h594q121 0 161 121l391 1126h447l-518 -1480q-27 -80 -103 -121q-61 -31 -131 -31h-1185q-244 0 -244 209z" />
<glyph unicode="v" horiz-adv-x="1845" d="M-131 -2l561 1632h432l-438 -1247l960 1247h592l-1335 -1632h-772z" />
<glyph unicode="w" horiz-adv-x="2680" d="M-190 -2l561 1632h432l-438 -1247l960 1247h592l-283 -346l-315 -901l960 1247h592l-1265 -1632h-842l133 387l-315 -387h-772zM371 1630z" />
<glyph unicode="x" horiz-adv-x="1810" d="M-31 -2l715 899l-305 733h530l127 -289l230 289h632l-643 -784l377 -848h-571l-168 403l-332 -403h-592z" />
<glyph unicode="y" horiz-adv-x="1871" d="M-131 -2l135 385h957q70 0 126 33q51 31 68 73l33 97h-776q-360 0 -361 225q0 63 45 195l217 624h447l-189 -530q-14 -39 -14 -66q0 -63 82 -63h592q98 0 127 86q8 29 203 573h444l-492 -1394q-84 -238 -364 -238h-1280z" />
<glyph unicode="z" horiz-adv-x="1538" d="M80 -2l706 1245h-673l141 389h1219l-707 -1245h672l-140 -389h-1218zM80 -2z" />
<glyph unicode="{" horiz-adv-x="1011" d="M-342 -186q0 57 25 125q242 700 671 1937q63 182 234 182h766l-137 -385h-351q-135 0 -168 -92q-66 -180 -290 -838q-242 -694 -242 -704q0 -66 104 -66h355l-136 -385h-548q-125 0 -201 58q-82 59 -82 168z" />
<glyph unicode="|" d="M-100 -98l661 1861h447l-662 -1861h-446z" />
<glyph unicode="}" horiz-adv-x="1294" d="M-309 -412l137 385h350q135 0 168 93q63 180 291 837q242 694 242 705q0 66 -105 65h-354l135 385h549q125 0 201 -55q82 -61 81 -170q0 -57 -24 -125q-242 -700 -672 -1937q-63 -182 -233 -183h-766z" />
<glyph unicode="~" horiz-adv-x="1308" d="M-10 1317l114 315q74 63 191 64q74 0 306.5 -50.5t389.5 -50.5q150 0 291 37l-115 -315q-121 -12 -227 -12q-197 0 -389.5 53t-255.5 53q-129 0 -305 -94z" />
<glyph unicode="&#xa1;" d="M-63 -2l401 1135h446l-401 -1135h-446zM379 1249l135 383h447l-136 -383h-446z" />
<glyph unicode="&#xad;" horiz-adv-x="1308" d="M59 702l115 316h1176l-113 -316h-1178z" />
<glyph unicode="&#xae;" horiz-adv-x="342" d="M4 1452q0 70 49 119t119 49t118 -49t48 -119t-48 -119t-118 -49t-119 49t-49 119zM31 1452q0 -59 41 -103t100 -44q57 0 98 44t41 103t-41 103t-98 44q-59 0 -100 -44t-41 -103zM92 1364v8q25 2 25 23v118q0 20 -25 23v8h86q57 0 58 -45q0 -37 -39 -51l26 -37 q20 -29 37 -43v-4h-31q-4 0 -57 80h-25v-49q0 -20 25 -23v-8h-80zM147 1452h21q35 0 35 45q0 37 -35 37h-21v-82z" />
<glyph unicode="&#xb4;" horiz-adv-x="430" d="M0 1268l127 364h303l-127 -364h-303z" />
<glyph unicode="&#xc0;" horiz-adv-x="1972" d="M-48 231q0 66 21 121l176 506q63 184 260 184h1053l31 97q6 18 6 35q0 72 -92 71h-1125l135 385h1385q217 0 217 -217q-1 -57 -19 -108l-460 -1307h-1375q-113 0 -167 74q-45 63 -46 159zM460 451q0 -68 70 -68h700l97 272h-705q-96 0 -127 -86l-26 -69q-8 -27 -9 -49z M878 1972h191l61 -274h-190z" />
<glyph unicode="&#xc1;" horiz-adv-x="1972" d="M-48 231q0 66 21 121l176 506q63 184 260 184h1053l31 97q6 18 6 35q0 72 -92 71h-1125l135 385h1385q217 0 217 -217q-1 -57 -19 -108l-460 -1307h-1375q-113 0 -167 74q-45 63 -46 159zM460 451q0 -68 70 -68h700l97 272h-705q-96 0 -127 -86l-26 -69q-8 -27 -9 -49z M878 1698h191l61 274h-190z" />
<glyph unicode="&#xc2;" horiz-adv-x="1972" d="M-48 231q0 66 21 121l176 506q63 184 260 184h1053l31 97q6 18 6 35q0 72 -92 71h-1125l135 385h1385q217 0 217 -217q-1 -57 -19 -108l-460 -1307h-1375q-113 0 -167 74q-45 63 -46 159zM460 451q0 -68 70 -68h700l97 272h-705q-96 0 -127 -86l-26 -69q-8 -27 -9 -49z M848 1698l268 274h287l-47 -274h-185l23 139l-121 -139h-225z" />
<glyph unicode="&#xc3;" horiz-adv-x="1972" d="M-48 231q0 66 21 121l176 506q63 184 260 184h1053l31 97q6 18 6 35q0 72 -92 71h-1125l135 385h1385q217 0 217 -217q-1 -57 -19 -108l-460 -1307h-1375q-113 0 -167 74q-45 63 -46 159zM460 451q0 -68 70 -68h700l97 272h-705q-96 0 -127 -86l-26 -69q-8 -27 -9 -49z M655 1698l115 313q72 66 188 66q74 0 307.5 -50.5t391.5 -50.5q148 0 289 35l-115 -313q-119 -12 -225 -12q-197 0 -389.5 52t-258.5 52q-127 0 -303 -92z" />
<glyph unicode="&#xc4;" horiz-adv-x="1972" d="M-48 231q0 66 21 121l176 506q63 184 260 184h1053l31 97q6 18 6 35q0 72 -92 71h-1125l135 385h1385q217 0 217 -217q-1 -57 -19 -108l-460 -1307h-1375q-113 0 -167 74q-45 63 -46 159zM460 451q0 -68 70 -68h700l97 272h-705q-96 0 -127 -86l-26 -69q-8 -27 -9 -49z M718 1698l136 383h446l-137 -383h-445zM1312 1698l136 383h446l-137 -383h-445z" />
<glyph unicode="&#xc5;" horiz-adv-x="1972" d="M-48 231q0 66 21 121l176 506q63 184 260 184h1053l31 97q6 18 6 35q0 72 -92 71h-1125l135 385h1385q217 0 217 -217q-1 -57 -19 -108l-460 -1307h-1375q-113 0 -167 74q-45 63 -46 159zM460 451q0 -68 70 -68h700l97 272h-705q-96 0 -127 -86l-26 -69q-8 -27 -9 -49z M995 1888q0 78 55.5 133.5t135.5 55.5q78 0 133 -55.5t55 -133.5q0 -80 -55 -135t-133 -55q-80 0 -135.5 55t-55.5 135z" />
<glyph unicode="&#xc6;" horiz-adv-x="3184" d="M-82 231q0 66 21 121l176 506q66 184 260 184h1052q6 18 31 97q6 18 6 35q0 72 -92 71h-1124l137 385h2621q260 0 261 -213q0 -79 -43 -198l-211 -603h-1291l-43 -120q-8 -29 -8 -50q0 -63 84 -63h1176l-138 -385h-2662q-113 0 -168 74q-45 63 -45 159zM426 451 q0 -68 70 -68h700l96 272h-704q-96 0 -127 -86l-27 -69q-8 -27 -8 -49zM1862 1001h839l47 138q4 12 5 26q0 80 -101 80h-573q-121 0 -150 -43q-23 -63 -67 -201z" />
<glyph unicode="&#xc7;" horiz-adv-x="1771" d="M-125 223q0 57 23 123l385 1102q63 182 233 182h1380l-135 -385h-966q-133 0 -166 -92l-13 -33q-10 -27 -231 -657q-2 -8 -2 -17q0 -63 102 -63h971l-137 -385h-33l-368 -444h-242l153 444h-673q-123 0 -202 58.5t-79 166.5z" />
<glyph unicode="&#xc8;" horiz-adv-x="1935" d="M-73 223q0 63 45 195l374 1085q45 127 220 127h1202q258 0 258 -213q0 -79 -41 -198l-213 -603h-1290l-35 -104q-14 -39 -14 -66q0 -63 81 -63h1176l-135 -385h-1268q-360 0 -360 225zM621 1001h842l45 138q4 12 4 26q0 80 -101 80h-573q-74 0 -104 -10q-43 -16 -58 -61z M887 1972h191l61 -274h-190z" />
<glyph unicode="&#xc9;" horiz-adv-x="1935" d="M-73 223q0 63 45 195l374 1085q45 127 220 127h1202q258 0 258 -213q0 -79 -41 -198l-213 -603h-1290l-35 -104q-14 -39 -14 -66q0 -63 81 -63h1176l-135 -385h-1268q-360 0 -360 225zM621 1001h842l45 138q4 12 4 26q0 80 -101 80h-573q-74 0 -104 -10q-43 -16 -58 -61z M887 1698h191l61 274h-190z" />
<glyph unicode="&#xca;" horiz-adv-x="1935" d="M-73 223q0 63 45 195l374 1085q45 127 220 127h1202q258 0 258 -213q0 -79 -41 -198l-213 -603h-1290l-35 -104q-14 -39 -14 -66q0 -63 81 -63h1176l-135 -385h-1268q-360 0 -360 225zM621 1001h842l45 138q4 12 4 26q0 80 -101 80h-573q-74 0 -104 -10q-43 -16 -58 -61z M848 1698l268 274h287l-47 -274h-185l23 139l-121 -139h-225z" />
<glyph unicode="&#xcb;" horiz-adv-x="1935" d="M-73 223q0 63 45 195l374 1085q45 127 220 127h1202q258 0 258 -213q0 -79 -41 -198l-213 -603h-1290l-35 -104q-14 -39 -14 -66q0 -63 81 -63h1176l-135 -385h-1268q-360 0 -360 225zM621 1001h842l45 138q4 12 4 26q0 80 -101 80h-573q-74 0 -104 -10q-43 -16 -58 -61z M727 1698l136 383h446l-137 -383h-445zM1321 1698l136 383h446l-137 -383h-445z" />
<glyph unicode="&#xcc;" d="M-63 -2l577 1634h447l-578 -1634h-446zM594 1972h191l61 -274h-190z" />
<glyph unicode="&#xcd;" d="M-63 -2l577 1634h447l-578 -1634h-446zM614 1698h191l61 274h-190z" />
<glyph unicode="&#xce;" d="M-63 -2l577 1634h447l-578 -1634h-446zM479 1698l268 274h287l-47 -274h-185l23 139l-121 -139h-225z" />
<glyph unicode="&#xcf;" d="M-276 -2l577 1634h447l-578 -1634h-446zM16 1698l136 383h446l-137 -383h-445zM610 1698l136 383h446l-137 -383h-445z" />
<glyph unicode="&#xd0;" horiz-adv-x="2048" d="M-43 -2l250 704h-250l115 316h247l216 612h1288q125 0 203.5 -58.5t78.5 -166.5q1 -57 -22 -125l-387 -1100q-63 -182 -232 -182h-1507zM541 383h643q135 0 168 90l12 35q10 26 231 655q2 8 2 17q0 66 -104 65h-649l-80 -227h278l-112 -316h-277z" />
<glyph unicode="&#xd1;" horiz-adv-x="2115" d="M-47 -2l571 1632h1366q244 0 244 -211q0 -88 -45 -221l-426 -1200h-443l391 1120q6 20 7 41q0 86 -72 86h-594q-121 0 -162 -123l-391 -1124h-446zM655 1698l115 313q72 66 188 66q74 0 307.5 -50.5t391.5 -50.5q148 0 289 35l-115 -313q-119 -12 -225 -12 q-197 0 -389.5 52t-258.5 52q-127 0 -303 -92z" />
<glyph unicode="&#xd2;" horiz-adv-x="2021" d="M-56 209q0 94 48 219l34 86l336 963q27 80 103 120q61 33 131 33h1186q244 0 243 -211q0 -88 -45 -221l-371 -1048q-29 -80 -104 -121q-59 -31 -129 -31h-1186q-246 0 -246 211zM26 514zM461 467q0 -84 73 -84h594q74 0 113 37q25 25 47 84l215 614q8 20 8 41 q0 86 -74 86h-593q-119 0 -162 -123l-213 -612q-8 -20 -8 -43zM469 510zM870 1972h191l61 -274h-190zM1730 498z" />
<glyph unicode="&#xd3;" horiz-adv-x="2021" d="M-56 209q0 94 48 219l34 86l336 963q27 80 103 120q61 33 131 33h1186q244 0 243 -211q0 -88 -45 -221l-371 -1048q-29 -80 -104 -121q-59 -31 -129 -31h-1186q-246 0 -246 211zM26 514zM461 467q0 -84 73 -84h594q74 0 113 37q25 25 47 84l215 614q8 20 8 41 q0 86 -74 86h-593q-119 0 -162 -123l-213 -612q-8 -20 -8 -43zM469 510zM870 1698h191l61 274h-190zM1730 498z" />
<glyph unicode="&#xd4;" horiz-adv-x="2021" d="M-56 209q0 94 48 219l34 86l336 963q27 80 103 120q61 33 131 33h1186q244 0 243 -211q0 -88 -45 -221l-371 -1048q-29 -80 -104 -121q-59 -31 -129 -31h-1186q-246 0 -246 211zM26 514zM461 467q0 -84 73 -84h594q74 0 113 37q25 25 47 84l215 614q8 20 8 41 q0 86 -74 86h-593q-119 0 -162 -123l-213 -612q-8 -20 -8 -43zM469 510zM909 1698l268 274h287l-47 -274h-185l23 139l-121 -139h-225zM1730 498z" />
<glyph unicode="&#xd5;" horiz-adv-x="2021" d="M-56 209q0 94 48 219l34 86l336 963q27 80 103 120q61 33 131 33h1186q244 0 243 -211q0 -88 -45 -221l-371 -1048q-29 -80 -104 -121q-59 -31 -129 -31h-1186q-246 0 -246 211zM26 514zM461 467q0 -84 73 -84h594q74 0 113 37q25 25 47 84l215 614q8 20 8 41 q0 86 -74 86h-593q-119 0 -162 -123l-213 -612q-8 -20 -8 -43zM469 510zM655 1698l115 313q72 66 188 66q74 0 307.5 -50.5t391.5 -50.5q148 0 289 35l-115 -313q-119 -12 -225 -12q-197 0 -389.5 52t-258.5 52q-127 0 -303 -92zM1730 498z" />
<glyph unicode="&#xd6;" horiz-adv-x="2021" d="M-56 209q0 94 48 219l34 86l336 963q27 80 103 120q61 33 131 33h1186q244 0 243 -211q0 -88 -45 -221l-371 -1048q-29 -80 -104 -121q-59 -31 -129 -31h-1186q-246 0 -246 211zM26 514zM461 467q0 -84 73 -84h594q74 0 113 37q25 25 47 84l215 614q8 20 8 41 q0 86 -74 86h-593q-119 0 -162 -123l-213 -612q-8 -20 -8 -43zM469 510zM710 1698l136 383h446l-137 -383h-445zM1304 1698l136 383h446l-137 -383h-445zM1730 498z" />
<glyph unicode="&#xd8;" horiz-adv-x="2021" d="M-57 209q0 94 49 219l33 86l337 963q27 80 103 120q61 33 131 33h862l119 139h446l-131 -153q133 -41 133 -197q0 -88 -45 -221l-370 -1048q-29 -80 -105 -121q-59 -31 -129 -31h-868l-105 -123h-446l119 137q-133 43 -133 197zM25 514zM461 465l667 780h-284 q-121 0 -162 -123l-213 -612q-8 -23 -8 -45zM469 510zM838 383h290q74 0 113 37q25 25 45 84l217 614q8 24 6 51zM1731 498z" />
<glyph unicode="&#xd9;" horiz-adv-x="1937" d="M-133 207q0 90 47 221l426 1202h440l-391 -1120q-6 -20 -6 -43q0 -84 72 -84h594q121 0 161 121l391 1126h447l-518 -1480q-27 -80 -103 -121q-61 -31 -131 -31h-1185q-244 0 -244 209zM862 1972h191l61 -274h-190z" />
<glyph unicode="&#xda;" horiz-adv-x="1937" d="M-133 207q0 90 47 221l426 1202h440l-391 -1120q-6 -20 -6 -43q0 -84 72 -84h594q121 0 161 121l391 1126h447l-518 -1480q-27 -80 -103 -121q-61 -31 -131 -31h-1185q-244 0 -244 209zM862 1698h191l61 274h-190z" />
<glyph unicode="&#xdb;" horiz-adv-x="1937" d="M-133 207q0 90 47 221l426 1202h440l-391 -1120q-6 -20 -6 -43q0 -84 72 -84h594q121 0 161 121l391 1126h447l-518 -1480q-27 -80 -103 -121q-61 -31 -131 -31h-1185q-244 0 -244 209zM909 1698l268 274h287l-47 -274h-185l23 139l-121 -139h-225z" />
<glyph unicode="&#xdc;" horiz-adv-x="1937" d="M-133 207q0 90 47 221l426 1202h440l-391 -1120q-6 -20 -6 -43q0 -84 72 -84h594q121 0 161 121l391 1126h447l-518 -1480q-27 -80 -103 -121q-61 -31 -131 -31h-1185q-244 0 -244 209zM702 1698l136 383h446l-137 -383h-445zM1296 1698l136 383h446l-137 -383h-445z" />
<glyph unicode="&#xdd;" horiz-adv-x="1884" d="M-127 -2l135 385h957q70 0 126 33q51 31 68 73l33 97h-776q-360 0 -361 225q0 63 45 195l217 624h447l-189 -530q-14 -39 -14 -66q0 -63 82 -63h592q98 0 127 86q8 29 203 573h444l-492 -1394q-84 -238 -364 -238h-1280zM864 1698h191l61 274h-190z" />
<glyph unicode="&#xdf;" horiz-adv-x="2308" d="M-63 -2l577 1634l1559 -2q125 0 203.5 -58.5t78.5 -166.5q0 -57 -24 -125l-97 -268q-57 -160 -196 -189q31 -8 53.5 -47t22.5 -88q0 -29 -11 -57l-157 -451q-63 -182 -234 -182h-1157l141 385h738q135 0 168 90l24 72q6 14 6 28q0 82 -92 82h-754l134 381h766 q72 0 98 15.5t41 54.5l20 57q2 8 2 17q0 66 -104 65h-920l-440 -1247h-446z" />
<glyph unicode="&#xe0;" horiz-adv-x="1972" d="M-48 231q0 66 21 121l176 506q63 184 260 184h1053l31 97q6 18 6 35q0 72 -92 71h-1125l135 385h1385q217 0 217 -217q-1 -57 -19 -108l-460 -1307h-1375q-113 0 -167 74q-45 63 -46 159zM460 451q0 -68 70 -68h700l97 272h-705q-96 0 -127 -86l-26 -69q-8 -27 -9 -49z M878 1972h191l61 -274h-190z" />
<glyph unicode="&#xe1;" horiz-adv-x="1972" d="M-48 231q0 66 21 121l176 506q63 184 260 184h1053l31 97q6 18 6 35q0 72 -92 71h-1125l135 385h1385q217 0 217 -217q-1 -57 -19 -108l-460 -1307h-1375q-113 0 -167 74q-45 63 -46 159zM460 451q0 -68 70 -68h700l97 272h-705q-96 0 -127 -86l-26 -69q-8 -27 -9 -49z M878 1698h191l61 274h-190z" />
<glyph unicode="&#xe2;" horiz-adv-x="1972" d="M-48 231q0 66 21 121l176 506q63 184 260 184h1053l31 97q6 18 6 35q0 72 -92 71h-1125l135 385h1385q217 0 217 -217q-1 -57 -19 -108l-460 -1307h-1375q-113 0 -167 74q-45 63 -46 159zM460 451q0 -68 70 -68h700l97 272h-705q-96 0 -127 -86l-26 -69q-8 -27 -9 -49z M848 1698l268 274h287l-47 -274h-185l23 139l-121 -139h-225z" />
<glyph unicode="&#xe3;" horiz-adv-x="1972" d="M-48 231q0 66 21 121l176 506q63 184 260 184h1053l31 97q6 18 6 35q0 72 -92 71h-1125l135 385h1385q217 0 217 -217q-1 -57 -19 -108l-460 -1307h-1375q-113 0 -167 74q-45 63 -46 159zM460 451q0 -68 70 -68h700l97 272h-705q-96 0 -127 -86l-26 -69q-8 -27 -9 -49z M655 1698l115 313q72 66 188 66q74 0 307.5 -50.5t391.5 -50.5q148 0 289 35l-115 -313q-119 -12 -225 -12q-197 0 -389.5 52t-258.5 52q-127 0 -303 -92z" />
<glyph unicode="&#xe4;" horiz-adv-x="1972" d="M-48 231q0 66 21 121l176 506q63 184 260 184h1053l31 97q6 18 6 35q0 72 -92 71h-1125l135 385h1385q217 0 217 -217q-1 -57 -19 -108l-460 -1307h-1375q-113 0 -167 74q-45 63 -46 159zM460 451q0 -68 70 -68h700l97 272h-705q-96 0 -127 -86l-26 -69q-8 -27 -9 -49z M718 1698l136 383h446l-137 -383h-445zM1312 1698l136 383h446l-137 -383h-445z" />
<glyph unicode="&#xe5;" horiz-adv-x="1972" d="M-48 231q0 66 21 121l176 506q63 184 260 184h1053l31 97q6 18 6 35q0 72 -92 71h-1125l135 385h1385q217 0 217 -217q-1 -57 -19 -108l-460 -1307h-1375q-113 0 -167 74q-45 63 -46 159zM460 451q0 -68 70 -68h700l97 272h-705q-96 0 -127 -86l-26 -69q-8 -27 -9 -49z M995 1888q0 78 55.5 133.5t135.5 55.5q78 0 133 -55.5t55 -133.5q0 -80 -55 -135t-133 -55q-80 0 -135.5 55t-55.5 135z" />
<glyph unicode="&#xe6;" horiz-adv-x="3184" d="M-82 231q0 66 21 121l176 506q66 184 260 184h1052q6 18 31 97q6 18 6 35q0 72 -92 71h-1124l137 385h2621q260 0 261 -213q0 -79 -43 -198l-211 -603h-1291l-43 -120q-8 -29 -8 -50q0 -63 84 -63h1176l-138 -385h-2662q-113 0 -168 74q-45 63 -45 159zM426 451 q0 -68 70 -68h700l96 272h-704q-96 0 -127 -86l-27 -69q-8 -27 -8 -49zM1862 1001h839l47 138q4 12 5 26q0 80 -101 80h-573q-121 0 -150 -43q-23 -63 -67 -201z" />
<glyph unicode="&#xe7;" horiz-adv-x="1771" d="M-125 223q0 57 23 123l385 1102q63 182 233 182h1380l-135 -385h-966q-133 0 -166 -92l-13 -33q-10 -27 -231 -657q-2 -8 -2 -17q0 -63 102 -63h971l-137 -385h-33l-368 -444h-242l153 444h-673q-123 0 -202 58.5t-79 166.5z" />
<glyph unicode="&#xe8;" horiz-adv-x="1935" d="M-73 223q0 63 45 195l374 1085q45 127 220 127h1202q258 0 258 -213q0 -79 -41 -198l-213 -603h-1290l-35 -104q-14 -39 -14 -66q0 -63 81 -63h1176l-135 -385h-1268q-360 0 -360 225zM621 1001h842l45 138q4 12 4 26q0 80 -101 80h-573q-74 0 -104 -10q-43 -16 -58 -61z M887 1972h191l61 -274h-190z" />
<glyph unicode="&#xe9;" horiz-adv-x="1935" d="M-73 223q0 63 45 195l374 1085q45 127 220 127h1202q258 0 258 -213q0 -79 -41 -198l-213 -603h-1290l-35 -104q-14 -39 -14 -66q0 -63 81 -63h1176l-135 -385h-1268q-360 0 -360 225zM621 1001h842l45 138q4 12 4 26q0 80 -101 80h-573q-74 0 -104 -10q-43 -16 -58 -61z M887 1698h191l61 274h-190z" />
<glyph unicode="&#xea;" horiz-adv-x="1935" d="M-73 223q0 63 45 195l374 1085q45 127 220 127h1202q258 0 258 -213q0 -79 -41 -198l-213 -603h-1290l-35 -104q-14 -39 -14 -66q0 -63 81 -63h1176l-135 -385h-1268q-360 0 -360 225zM621 1001h842l45 138q4 12 4 26q0 80 -101 80h-573q-74 0 -104 -10q-43 -16 -58 -61z M848 1698l268 274h287l-47 -274h-185l23 139l-121 -139h-225z" />
<glyph unicode="&#xeb;" horiz-adv-x="1935" d="M-73 223q0 63 45 195l374 1085q45 127 220 127h1202q258 0 258 -213q0 -79 -41 -198l-213 -603h-1290l-35 -104q-14 -39 -14 -66q0 -63 81 -63h1176l-135 -385h-1268q-360 0 -360 225zM621 1001h842l45 138q4 12 4 26q0 80 -101 80h-573q-74 0 -104 -10q-43 -16 -58 -61z M727 1698l136 383h446l-137 -383h-445zM1321 1698l136 383h446l-137 -383h-445z" />
<glyph unicode="&#xec;" d="M-63 -2l577 1634h447l-578 -1634h-446zM594 1972h191l61 -274h-190z" />
<glyph unicode="&#xed;" d="M-63 -2l577 1634h447l-578 -1634h-446zM614 1698h191l61 274h-190z" />
<glyph unicode="&#xee;" d="M-63 -2l577 1634h447l-578 -1634h-446zM479 1698l268 274h287l-47 -274h-185l23 139l-121 -139h-225z" />
<glyph unicode="&#xef;" d="M-276 -2l577 1634h447l-578 -1634h-446zM16 1698l136 383h446l-137 -383h-445zM610 1698l136 383h446l-137 -383h-445z" />
<glyph unicode="&#xf0;" horiz-adv-x="2048" d="M-43 -2l250 704h-250l115 316h247l216 612h1288q125 0 203.5 -58.5t78.5 -166.5q1 -57 -22 -125l-387 -1100q-63 -182 -232 -182h-1507zM541 383h643q135 0 168 90l12 35q10 26 231 655q2 8 2 17q0 66 -104 65h-649l-80 -227h278l-112 -316h-277z" />
<glyph unicode="&#xf1;" horiz-adv-x="2115" d="M-47 -2l571 1632h1366q244 0 244 -211q0 -88 -45 -221l-426 -1200h-443l391 1120q6 20 7 41q0 86 -72 86h-594q-121 0 -162 -123l-391 -1124h-446zM655 1698l115 313q72 66 188 66q74 0 307.5 -50.5t391.5 -50.5q148 0 289 35l-115 -313q-119 -12 -225 -12 q-197 0 -389.5 52t-258.5 52q-127 0 -303 -92z" />
<glyph unicode="&#xf2;" horiz-adv-x="2021" d="M-56 209q0 94 48 219l34 86l336 963q27 80 103 120q61 33 131 33h1186q244 0 243 -211q0 -88 -45 -221l-371 -1048q-29 -80 -104 -121q-59 -31 -129 -31h-1186q-246 0 -246 211zM26 514zM461 467q0 -84 73 -84h594q74 0 113 37q25 25 47 84l215 614q8 20 8 41 q0 86 -74 86h-593q-119 0 -162 -123l-213 -612q-8 -20 -8 -43zM469 510zM870 1972h191l61 -274h-190zM1730 498z" />
<glyph unicode="&#xf3;" horiz-adv-x="2021" d="M-56 209q0 94 48 219l34 86l336 963q27 80 103 120q61 33 131 33h1186q244 0 243 -211q0 -88 -45 -221l-371 -1048q-29 -80 -104 -121q-59 -31 -129 -31h-1186q-246 0 -246 211zM26 514zM461 467q0 -84 73 -84h594q74 0 113 37q25 25 47 84l215 614q8 20 8 41 q0 86 -74 86h-593q-119 0 -162 -123l-213 -612q-8 -20 -8 -43zM469 510zM870 1698h191l61 274h-190zM1730 498z" />
<glyph unicode="&#xf4;" horiz-adv-x="2021" d="M-56 209q0 94 48 219l34 86l336 963q27 80 103 120q61 33 131 33h1186q244 0 243 -211q0 -88 -45 -221l-371 -1048q-29 -80 -104 -121q-59 -31 -129 -31h-1186q-246 0 -246 211zM26 514zM461 467q0 -84 73 -84h594q74 0 113 37q25 25 47 84l215 614q8 20 8 41 q0 86 -74 86h-593q-119 0 -162 -123l-213 -612q-8 -20 -8 -43zM469 510zM909 1698l268 274h287l-47 -274h-185l23 139l-121 -139h-225zM1730 498z" />
<glyph unicode="&#xf5;" horiz-adv-x="2021" d="M-56 209q0 94 48 219l34 86l336 963q27 80 103 120q61 33 131 33h1186q244 0 243 -211q0 -88 -45 -221l-371 -1048q-29 -80 -104 -121q-59 -31 -129 -31h-1186q-246 0 -246 211zM26 514zM461 467q0 -84 73 -84h594q74 0 113 37q25 25 47 84l215 614q8 20 8 41 q0 86 -74 86h-593q-119 0 -162 -123l-213 -612q-8 -20 -8 -43zM469 510zM655 1698l115 313q72 66 188 66q74 0 307.5 -50.5t391.5 -50.5q148 0 289 35l-115 -313q-119 -12 -225 -12q-197 0 -389.5 52t-258.5 52q-127 0 -303 -92zM1730 498z" />
<glyph unicode="&#xf6;" horiz-adv-x="2021" d="M-56 209q0 94 48 219l34 86l336 963q27 80 103 120q61 33 131 33h1186q244 0 243 -211q0 -88 -45 -221l-371 -1048q-29 -80 -104 -121q-59 -31 -129 -31h-1186q-246 0 -246 211zM26 514zM461 467q0 -84 73 -84h594q74 0 113 37q25 25 47 84l215 614q8 20 8 41 q0 86 -74 86h-593q-119 0 -162 -123l-213 -612q-8 -20 -8 -43zM469 510zM710 1698l136 383h446l-137 -383h-445zM1304 1698l136 383h446l-137 -383h-445zM1730 498z" />
<glyph unicode="&#xf7;" horiz-adv-x="1308" d="M59 702l115 316h1176l-113 -316h-1178zM281 203l135 383h446l-135 -383h-446zM526 1145l136 383h446l-135 -383h-447z" />
<glyph unicode="&#xf8;" horiz-adv-x="2021" d="M-57 209q0 94 49 219l33 86l337 963q27 80 103 120q61 33 131 33h862l119 139h446l-131 -153q133 -41 133 -197q0 -88 -45 -221l-370 -1048q-29 -80 -105 -121q-59 -31 -129 -31h-868l-105 -123h-446l119 137q-133 43 -133 197zM25 514zM461 465l667 780h-284 q-121 0 -162 -123l-213 -612q-8 -23 -8 -45zM469 510zM838 383h290q74 0 113 37q25 25 45 84l217 614q8 24 6 51zM1731 498z" />
<glyph unicode="&#xf9;" horiz-adv-x="1937" d="M-133 207q0 90 47 221l426 1202h440l-391 -1120q-6 -20 -6 -43q0 -84 72 -84h594q121 0 161 121l391 1126h447l-518 -1480q-27 -80 -103 -121q-61 -31 -131 -31h-1185q-244 0 -244 209zM862 1972h191l61 -274h-190z" />
<glyph unicode="&#xfa;" horiz-adv-x="1937" d="M-133 207q0 90 47 221l426 1202h440l-391 -1120q-6 -20 -6 -43q0 -84 72 -84h594q121 0 161 121l391 1126h447l-518 -1480q-27 -80 -103 -121q-61 -31 -131 -31h-1185q-244 0 -244 209zM862 1698h191l61 274h-190z" />
<glyph unicode="&#xfb;" horiz-adv-x="1937" d="M-133 207q0 90 47 221l426 1202h440l-391 -1120q-6 -20 -6 -43q0 -84 72 -84h594q121 0 161 121l391 1126h447l-518 -1480q-27 -80 -103 -121q-61 -31 -131 -31h-1185q-244 0 -244 209zM909 1698l268 274h287l-47 -274h-185l23 139l-121 -139h-225z" />
<glyph unicode="&#xfc;" horiz-adv-x="1937" d="M-133 207q0 90 47 221l426 1202h440l-391 -1120q-6 -20 -6 -43q0 -84 72 -84h594q121 0 161 121l391 1126h447l-518 -1480q-27 -80 -103 -121q-61 -31 -131 -31h-1185q-244 0 -244 209zM702 1698l136 383h446l-137 -383h-445zM1296 1698l136 383h446l-137 -383h-445z" />
<glyph unicode="&#xfd;" horiz-adv-x="1884" d="M-127 -2l135 385h957q70 0 126 33q51 31 68 73l33 97h-776q-360 0 -361 225q0 63 45 195l217 624h447l-189 -530q-14 -39 -14 -66q0 -63 82 -63h592q98 0 127 86q8 29 203 573h444l-492 -1394q-84 -238 -364 -238h-1280zM864 1698h191l61 274h-190z" />
<glyph unicode="&#xff;" horiz-adv-x="1878" d="M-131 -2l135 385h957q70 0 126 33q51 31 68 73l33 97h-776q-360 0 -361 225q0 63 45 195l217 624h447l-189 -530q-14 -39 -14 -66q0 -63 82 -63h592q98 0 127 86q8 29 203 573h444l-492 -1394q-84 -238 -364 -238h-1280zM700 1698l136 383h446l-137 -383h-445zM1294 1698 l136 383h446l-137 -383h-445z" />
<glyph unicode="&#x2000;" horiz-adv-x="1040" />
<glyph unicode="&#x2001;" horiz-adv-x="2081" />
<glyph unicode="&#x2002;" horiz-adv-x="1040" />
<glyph unicode="&#x2003;" horiz-adv-x="2081" />
<glyph unicode="&#x2004;" horiz-adv-x="693" />
<glyph unicode="&#x2005;" horiz-adv-x="520" />
<glyph unicode="&#x2006;" horiz-adv-x="346" />
<glyph unicode="&#x2007;" horiz-adv-x="346" />
<glyph unicode="&#x2008;" horiz-adv-x="260" />
<glyph unicode="&#x2009;" horiz-adv-x="416" />
<glyph unicode="&#x200a;" horiz-adv-x="115" />
<glyph unicode="&#x2010;" horiz-adv-x="1308" d="M59 702l115 316h1176l-113 -316h-1178z" />
<glyph unicode="&#x2011;" horiz-adv-x="1308" d="M59 702l115 316h1176l-113 -316h-1178z" />
<glyph unicode="&#x2012;" horiz-adv-x="1308" d="M59 702l115 316h1176l-113 -316h-1178z" />
<glyph unicode="&#x2013;" horiz-adv-x="1041" d="M59 702l91 316h933l-90 -316h-934z" />
<glyph unicode="&#x2014;" horiz-adv-x="2065" d="M59 702l182 316h1866l-179 -316h-1869z" />
<glyph unicode="&#x2018;" horiz-adv-x="382" d="M-20 1268l126 364h304l-129 -364h-301z" />
<glyph unicode="&#x2019;" horiz-adv-x="382" d="M-20 1268l126 364h304l-129 -364h-301z" />
<glyph unicode="&#x2026;" horiz-adv-x="2154" d="M199 -2l135 383h446l-135 -383h-446zM813 -2l135 383h447l-135 -383h-447zM1427 -2l136 383h446l-135 -383h-447z" />
<glyph unicode="&#x202f;" horiz-adv-x="416" />
<glyph unicode="&#x205f;" horiz-adv-x="520" />
<glyph unicode="&#x25fc;" horiz-adv-x="1628" d="M0 0v1628h1628v-1628h-1628z" />
</font>
</defs>
</svg>
